HIERARCHY
ROOT Hips
{
    OFFSET 0.000000 0.000000 0.000000
    CHANNELS 6 Xposition Yposition Zposition Zrotation Xrotation Yrotation
    JOINT Spine
    {
        OFFSET -0.000000 7.750029 0.000000
        CHANNELS 3 Zrotation Xrotation Yrotation
        JOINT Spine1
        {
            OFFSET -0.000000 19.767460 0.000000
            CHANNELS 3 Zrotation Xrotation Yrotation
            JOINT Neck
            {
                OFFSET -0.000000 19.686279 1.789662
                CHANNELS 3 Zrotation Xrotation Yrotation
                JOINT Head
                {
                    OFFSET -0.000000 13.231757 -1.890251
                    CHANNELS 3 Zrotation Xrotation Yrotation
                    End Site
                    {
                        OFFSET -0.000000 23.628138 0.000000
                    }
                }
            }
            JOINT LeftShoulder
            {
                OFFSET 3.736819 16.910755 -0.280982
                CHANNELS 3 Zrotation Xrotation Yrotation
                JOINT LeftArm
                {
                    OFFSET 13.626117 0.000000 0.000000
                    CHANNELS 3 Zrotation Xrotation Yrotation
                    JOINT LeftForeArm
                    {
                        OFFSET 31.364786 0.000000 0.000000
                        CHANNELS 3 Zrotation Xrotation Yrotation
                        JOINT LeftHand
                        {
                            OFFSET 23.389509 0.000000 0.000000
                            CHANNELS 3 Zrotation Xrotation Yrotation
                            End Site
                            {
                                OFFSET 14.176883 0.000000 0.000000
                            }
                        }
                    }
                }
            }
            JOINT RightShoulder
            {
                OFFSET -3.821718 16.910755 -0.280982
                CHANNELS 3 Zrotation Xrotation Yrotation
                JOINT RightArm
                {
                    OFFSET -13.626117 0.000000 0.000000
                    CHANNELS 3 Zrotation Xrotation Yrotation
                    JOINT RightForeArm
                    {
                        OFFSET -31.364786 0.000000 0.000000
                        CHANNELS 3 Zrotation Xrotation Yrotation
                        JOINT RightHand
                        {
                            OFFSET -23.389509 0.000000 0.000000
                            CHANNELS 3 Zrotation Xrotation Yrotation
                            End Site
                            {
                                OFFSET -14.176883 0.000000 0.000000
                            }
                        }
                    }
                }
            }
        }
    }
    JOINT LeftUpLeg
    {
        OFFSET 9.451255 0.000000 0.000000
        CHANNELS 3 Zrotation Xrotation Yrotation
        JOINT LeftLeg
        {
            OFFSET -0.000000 -41.898624 0.000000
            CHANNELS 3 Zrotation Xrotation Yrotation
            JOINT LeftFoot
            {
                OFFSET -0.000000 -38.481331 0.000000
                CHANNELS 3 Zrotation Xrotation Yrotation
                JOINT LeftToeBase
                {
                    OFFSET -0.000000 -6.143315 14.176883
                    CHANNELS 3 Zrotation Xrotation Yrotation
                    End Site
                    {
                        OFFSET -0.000000 0.000000 3.780502
                    }
                }
            }
        }
    }
    JOINT RightUpLeg
    {
        OFFSET -9.451255 0.000000 0.000000
        CHANNELS 3 Zrotation Xrotation Yrotation
        JOINT RightLeg
        {
            OFFSET -0.000000 -41.898624 0.000000
            CHANNELS 3 Zrotation Xrotation Yrotation
            JOINT RightFoot
            {
                OFFSET -0.000000 -38.481331 0.000000
                CHANNELS 3 Zrotation Xrotation Yrotation
                JOINT RightToeBase
                {
                    OFFSET -0.000000 -6.143315 14.176883
                    CHANNELS 3 Zrotation Xrotation Yrotation
                    End Site
                    {
                        OFFSET -0.000000 0.000000 3.780502
                    }
                }
            }
        }
    }
}
MOTION
Frames:    5
Frame Time:    0.010000
-6.131098    89.864754    -21.334913    1.363000    0.471040    -179.005569    -1.971656    -3.042354    -1.601828    4.288861    2.723115    -1.651454    -2.742666    38.235039    3.284779    9.901150    -21.954668    6.054449    10.967548    3.212401    -5.560560    -72.358444    46.862503    -9.778407    5.661479    -10.730346    -5.071883    -17.541246    -9.883190    -3.952328    -8.849443    8.200345    -2.441903    65.135376    43.191910    20.049913    -3.707380    -7.829420    14.857414    14.889579    -6.847677    3.873003    5.404612    0.845343    -0.838777    -3.723167    20.596340    -7.989091    1.860699    -16.605909    16.979490    0.000000    0.000000    0.000000    -6.536994    -12.706224    4.056764    15.077676    53.198822    9.465490    -0.726662    -12.147981    -23.882572    0.000000    0.000000    0.000000    
-6.029655    89.859406    -21.769672    1.488123    0.484030    -179.017685    -2.010081    -2.912440    -1.657455    4.002136    2.786978    -1.703751    -2.718042    38.144489    3.189731    10.363752    -22.126118    6.131473    11.011930    3.095147    -5.654105    -72.164139    46.315353    -9.841979    5.927781    -10.999693    -5.689209    -17.422235    -10.159134    -3.654997    -8.866393    8.408086    -2.642388    65.455070    42.720795    19.537033    -3.412157    -7.289542    14.195223    15.498261    -6.139125    5.385330    5.664771    0.984172    -0.069766    -3.539281    21.075542    -9.755452    2.102016    -16.753092    17.881554    0.000000    0.000000    0.000000    -6.136698    -13.330146    4.603728    15.075342    52.564407    9.644247    -1.487168    -12.653050    -24.653479    0.000000    0.000000    0.000000    
-5.930935    89.823555    -22.219057    1.446993    0.530427    -178.916382    -2.256745    -2.812305    -1.756409    3.834383    2.966620    -1.800318    -2.911723    38.198952    3.167913    11.025735    -22.568064    6.324600    10.950522    3.243606    -5.664862    -71.462975    46.062218    -10.559236    5.999408    -11.005490    -5.911302    -16.980070    -10.138734    -3.827774    -9.095596    8.200217    -2.735114    66.071678    42.711166    18.669664    -3.247400    -7.079160    13.761122    15.483502    -5.996870    5.126564    5.742821    1.191606    0.374613    -3.413680    21.287140    -9.475486    1.780828    -16.747801    17.066635    0.000000    0.000000    0.000000    -5.942408    -13.940063    4.335017    14.380004    51.773586    8.327215    -2.661343    -12.295206    -23.536180    0.000000    0.000000    0.000000    
-5.841945    89.787514    -22.701103    1.385887    0.553542    -178.888016    -2.480244    -2.854479    -1.775199    3.634228    3.290352    -1.817777    -2.732747    38.053764    2.943524    11.225381    -22.683151    6.213594    10.913459    2.997821    -5.951563    -71.414642    45.372318    -10.497146    6.351677    -11.300448    -6.438574    -17.000750    -10.410547    -3.668056    -9.205033    8.119905    -2.787431    66.798294    42.093578    17.545723    -2.925839    -7.196875    13.850680    15.427756    -6.239824    4.487968    5.822615    1.417927    1.179247    -3.077162    21.583832    -10.690321    -0.528842    -18.007124    17.371130    0.000000    0.000000    0.000000    -5.756946    -14.462877    4.583735    14.019918    50.935204    10.563711    -2.836007    -13.040124    -26.235907    0.000000    0.000000    0.000000    
-5.764948    89.793381    -23.102621    1.378892    0.314115    -178.984909    -2.480570    -2.959158    -1.779016    3.151711    3.311570    -1.806056    -2.674712    38.089893    2.854925    11.729255    -22.901093    6.324539    10.958368    2.838573    -6.216473    -71.399757    44.744411    -10.214714    6.284259    -11.944350    -7.403816    -16.068172    -11.056717    -3.532254    -9.172076    8.386094    -2.714759    66.512550    42.277515    17.862421    -2.483289    -6.835348    12.225552    15.402911    -5.845214    5.396038    5.926175    1.272231    2.334924    -3.103562    22.110126    -9.871671    1.567331    -16.814262    15.789571    0.000000    0.000000    0.000000    -5.536063    -15.287092    4.949993    13.826274    49.674671    10.468081    -1.081775    -13.191625    -26.940683    0.000000    0.000000    0.000000    
